HIERARCHY
ROOT pelvis
{
	OFFSET 0.003123 -0.351407 0.012037
	CHANNELS 6 Xposition Yposition Zposition Zrotation Yrotation Xrotation 
	JOINT left_hip
	{
		OFFSET 0.058189 -0.092763 -0.026001
		CHANNELS 3 Zrotation Yrotation Xrotation
		JOINT left_knee
		{
			OFFSET 0.054695 -0.378753 -0.009396
			CHANNELS 3 Zrotation Yrotation Xrotation
			JOINT left_ankle
			{
				OFFSET -0.043453 -0.403059 -0.031876
				CHANNELS 3 Zrotation Yrotation Xrotation
				JOINT left_foot
				{
					OFFSET 0.047257 -0.057997 0.118216
					CHANNELS 3 Zrotation Yrotation Xrotation
					End Site
					{
						OFFSET 0.000000 0.000000 0.000000
					}
				}
			}
		}
	}
	JOINT right_hip
	{
		OFFSET -0.063267 -0.103908 -0.021250
		CHANNELS 3 Zrotation Yrotation Xrotation
		JOINT right_knee
		{
			OFFSET -0.044210 -0.362380 -0.016824
			CHANNELS 3 Zrotation Yrotation Xrotation
			JOINT right_ankle
			{
				OFFSET 0.015417 -0.410728 -0.020192
				CHANNELS 3 Zrotation Yrotation Xrotation
				JOINT right_foot
				{
					OFFSET -0.038812 -0.058328 0.119049
					CHANNELS 3 Zrotation Yrotation Xrotation
					End Site
					{
						OFFSET 0.000000 0.000000 0.000000
					}
				}
			}
		}
	}
	JOINT spine_1
	{
		OFFSET -0.002763 0.109891 -0.027618
		CHANNELS 3 Zrotation Yrotation Xrotation
		JOINT spine_2
		{
			OFFSET 0.009448 0.131853 -0.005940
			CHANNELS 3 Zrotation Yrotation Xrotation
			JOINT spine_3
			{
				OFFSET -0.011330 0.052235 0.028447
				CHANNELS 3 Zrotation Yrotation Xrotation
				JOINT neck
				{
					OFFSET -0.012164 0.165167 -0.031615
					CHANNELS 3 Zrotation Yrotation Xrotation
					JOINT head
					{
						OFFSET 0.024783 0.160452 0.020737
						CHANNELS 3 Zrotation Yrotation Xrotation
						End Site
						{
							OFFSET 0.000000 0.000000 0.000000
						}
					}
				}
				JOINT left_collar
				{
					OFFSET 0.046364 0.084944 -0.007220
					CHANNELS 3 Zrotation Yrotation Xrotation
					JOINT left_shoulder
					{
						OFFSET 0.119239 0.057728 -0.015461
						CHANNELS 3 Zrotation Yrotation Xrotation
						JOINT left_elbow
						{
							OFFSET 0.254123 -0.072151 -0.042459
							CHANNELS 3 Zrotation Yrotation Xrotation
							JOINT left_wrist
							{
								OFFSET 0.251987 0.023221 -0.002472
								CHANNELS 3 Zrotation Yrotation Xrotation
								JOINT left_index_1
								{
									OFFSET 0.101902 -0.008688 0.019351
									CHANNELS 3 Zrotation Yrotation Xrotation
									JOINT left_index_2
									{
										OFFSET 0.030149 -0.011154 0.001151
										CHANNELS 3 Zrotation Yrotation Xrotation
										JOINT left_index_3
										{
											OFFSET 0.006504 -0.021577 -0.002433
											CHANNELS 3 Zrotation Yrotation Xrotation
											End Site
											{
												OFFSET 0.000000 0.000000 0.000000
											}
										}
									}
								}
								JOINT left_middle_1
								{
									OFFSET 0.109398 -0.006328 -0.003981
									CHANNELS 3 Zrotation Yrotation Xrotation
									JOINT left_middle_2
									{
										OFFSET 0.026472 -0.015218 -0.004641
										CHANNELS 3 Zrotation Yrotation Xrotation
										JOINT left_middle_3
										{
											OFFSET 0.005022 -0.023347 -0.001911
											CHANNELS 3 Zrotation Yrotation Xrotation
											End Site
											{
												OFFSET 0.000000 0.000000 0.000000
											}
										}
									}
								}
								JOINT left_pinky_1
								{
									OFFSET 0.084047 -0.014539 -0.043750
									CHANNELS 3 Zrotation Yrotation Xrotation
									JOINT left_pinky_2
									{
										OFFSET 0.012124 -0.014448 -0.005375
										CHANNELS 3 Zrotation Yrotation Xrotation
										JOINT left_pinky_3
										{
											OFFSET 0.003798 -0.018853 0.000167
											CHANNELS 3 Zrotation Yrotation Xrotation
											End Site
											{
												OFFSET 0.000000 0.000000 0.000000
											}
										}
									}
								}
								JOINT left_ring_1
								{
									OFFSET 0.097444 -0.009268 -0.027345
									CHANNELS 3 Zrotation Yrotation Xrotation
									JOINT left_ring_2
									{
										OFFSET 0.023561 -0.016057 -0.001895
										CHANNELS 3 Zrotation Yrotation Xrotation
										JOINT left_ring_3
										{
											OFFSET 0.004257 -0.023548 0.000814
											CHANNELS 3 Zrotation Yrotation Xrotation
											End Site
											{
												OFFSET 0.000000 0.000000 0.000000
											}
										}
									}
								}
								JOINT left_thumb_1
								{
									OFFSET 0.040636 -0.017977 0.025611
									CHANNELS 3 Zrotation Yrotation Xrotation
									JOINT left_thumb_2
									{
										OFFSET 0.021637 -0.017639 0.011623
										CHANNELS 3 Zrotation Yrotation Xrotation
										JOINT left_thumb_3
										{
											OFFSET 0.024002 -0.008356 0.006548
											CHANNELS 3 Zrotation Yrotation Xrotation
											End Site
											{
												OFFSET 0.000000 0.000000 0.000000
											}
										}
									}
								}
							}
						}
					}
				}
				JOINT right_collar
				{
					OFFSET -0.047695 0.084339 -0.013400
					CHANNELS 3 Zrotation Yrotation Xrotation
					JOINT right_shoulder
					{
						OFFSET -0.102578 0.053524 -0.012669
						CHANNELS 3 Zrotation Yrotation Xrotation
						JOINT right_elbow
						{
							OFFSET -0.271150 -0.036492 -0.026467
							CHANNELS 3 Zrotation Yrotation Xrotation
							JOINT right_wrist
							{
								OFFSET -0.249267 -0.004533 -0.015325
								CHANNELS 3 Zrotation Yrotation Xrotation
								JOINT right_index_1
								{
									OFFSET -0.099881 -0.011783 0.019600
									CHANNELS 3 Zrotation Yrotation Xrotation
									JOINT right_index_2
									{
										OFFSET -0.030148 -0.011154 0.001151
										CHANNELS 3 Zrotation Yrotation Xrotation
										JOINT right_index_3
										{
											OFFSET -0.006505 -0.021577 -0.002432
											CHANNELS 3 Zrotation Yrotation Xrotation
											End Site
											{
												OFFSET 0.000000 0.000000 0.000000
											}
										}
									}
								}
								JOINT right_middle_1
								{
									OFFSET -0.107376 -0.009422 -0.003734
									CHANNELS 3 Zrotation Yrotation Xrotation
									JOINT right_middle_2
									{
										OFFSET -0.026472 -0.015218 -0.004641
										CHANNELS 3 Zrotation Yrotation Xrotation
										JOINT right_middle_3
										{
											OFFSET -0.005022 -0.023347 -0.001911
											CHANNELS 3 Zrotation Yrotation Xrotation
											End Site
											{
												OFFSET 0.000000 0.000000 0.000000
											}
										}
									}
								}
								JOINT right_pinky_1
								{
									OFFSET -0.082027 -0.017634 -0.043503
									CHANNELS 3 Zrotation Yrotation Xrotation
									JOINT right_pinky_2
									{
										OFFSET -0.012123 -0.014448 -0.005374
										CHANNELS 3 Zrotation Yrotation Xrotation
										JOINT right_pinky_3
										{
											OFFSET -0.003798 -0.018852 0.000167
											CHANNELS 3 Zrotation Yrotation Xrotation
											End Site
											{
												OFFSET 0.000000 0.000000 0.000000
											}
										}
									}
								}
								JOINT right_ring_1
								{
									OFFSET -0.095423 -0.012362 -0.027099
									CHANNELS 3 Zrotation Yrotation Xrotation
									JOINT right_ring_2
									{
										OFFSET -0.023561 -0.016057 -0.001895
										CHANNELS 3 Zrotation Yrotation Xrotation
										JOINT right_ring_3
										{
											OFFSET -0.004257 -0.023548 0.000816
											CHANNELS 3 Zrotation Yrotation Xrotation
											End Site
											{
												OFFSET 0.000000 0.000000 0.000000
											}
										}
									}
								}
								JOINT right_thumb_1
								{
									OFFSET -0.038613 -0.021074 0.025861
									CHANNELS 3 Zrotation Yrotation Xrotation
									JOINT right_thumb_2
									{
										OFFSET -0.021636 -0.017639 0.011623
										CHANNELS 3 Zrotation Yrotation Xrotation
										JOINT right_thumb_3
										{
											OFFSET -0.024004 -0.008353 0.006547
											CHANNELS 3 Zrotation Yrotation Xrotation
											End Site
											{
												OFFSET 0.000000 0.000000 0.000000
											}
										}
									}
								}
							}
						}
					}
				}
			}
		}
	}
}
MOTION
Frames: 4
Frame Time: 0.050000
0.003619 0.680649 -0.003372 -2.885682 -2.292056 -17.623190 15.928728 0.133481 -52.743175 -13.264431 1.812539 68.720980 6.596670 6.475186 -10.102817 0.000000 0.000000 0.000000 -18.571267 -0.980183 -49.915450 18.716329 -9.824513 67.959230 -10.160206 -19.058144 -0.236813 0.000000 0.000000 0.000000 2.591077 -2.718232 32.204547 -9.079613 -0.746600 -19.160127 9.503160 -0.871952 23.662682 0.404285 3.294012 -22.041163 0.000000 0.000000 0.000000 -14.566005 -13.681162 7.543469 -43.628138 -22.642957 -5.681115 -31.579836 -56.494685 24.069725 15.485557 -5.754548 28.679341 -16.450209 6.571376 0.833134 0.673652 4.796598 12.680908 0.000000 0.000000 0.000000 -9.910977 -0.764456 -2.627157 -21.345247 4.153852 -1.434298 0.000000 0.000000 0.000000 19.875152 -17.617735 -8.558566 -49.234826 -16.891484 -28.692636 0.000000 0.000000 0.000000 -4.775224 -3.259505 -2.491136 -40.673264 0.555185 -11.696953 0.000000 0.000000 0.000000 11.686743 31.916301 29.769564 -4.361975 -17.466228 -3.906338 0.000000 0.000000 0.000000 13.775600 12.995149 6.924595 48.031827 20.610927 -0.129720 20.467074 61.834177 10.466441 -14.217235 7.799810 39.126886 19.906628 -7.059583 0.019610 1.239503 -8.640940 16.532298 0.000000 0.000000 0.000000 11.794645 1.009705 -3.061029 30.029638 -9.015379 -0.557122 0.000000 0.000000 0.000000 -22.050452 18.540159 -9.085359 67.156137 14.423027 -25.420447 0.000000 0.000000 0.000000 6.207118 3.232686 -2.666202 46.366332 -7.101299 -6.967727 0.000000 0.000000 0.000000 -8.861452 -35.989909 31.937975 -1.508894 19.777819 -7.959729 0.000000 0.000000 0.000000 
0.004090 0.680649 -0.006012 -3.039730 -2.243988 -17.863855 15.789157 0.042228 -52.587322 -12.938417 1.524202 68.616115 6.464116 6.213178 -10.031312 0.000000 0.000000 0.000000 -18.167387 -0.835669 -49.793103 18.269411 -9.518830 68.003053 -10.085939 -18.975542 0.030078 0.000000 0.000000 0.000000 2.764258 -2.785350 32.549186 -9.102114 -0.758207 -19.249804 9.467289 -0.938425 23.552231 0.470886 3.262460 -21.822169 0.000000 0.000000 0.000000 -14.436817 -13.745576 7.570380 -43.871834 -22.621554 -5.663257 -31.212686 -56.480973 23.846279 15.515707 -5.982813 27.580418 -17.224405 7.650894 0.992641 3.064436 4.137587 13.371006 0.000000 0.000000 0.000000 -9.747305 0.157310 -2.212561 -21.769093 4.470604 -0.490379 0.000000 0.000000 0.000000 21.037739 -16.567856 -7.533825 -52.915515 -17.911156 -27.978717 0.000000 0.000000 0.000000 -4.222188 -2.173273 -1.984318 -41.534449 0.586571 -10.690513 0.000000 0.000000 0.000000 11.531858 32.694939 30.474587 -4.215653 -17.710973 -4.073648 0.000000 0.000000 0.000000 13.646796 13.099581 6.983969 47.942943 20.785294 -0.076661 20.774467 61.562515 10.559233 -14.581769 8.062284 38.555793 20.372096 -7.085457 -0.052881 0.639500 -8.300167 16.605886 0.000000 0.000000 0.000000 12.222707 1.095645 -3.197593 29.361109 -8.801667 -0.162854 0.000000 0.000000 0.000000 -21.986799 18.858885 -9.284965 65.482103 15.947776 -25.912945 0.000000 0.000000 0.000000 6.509208 3.261403 -2.702905 51.530734 -4.638044 -10.471969 0.000000 0.000000 0.000000 -8.759893 -36.127542 32.020532 -1.440643 19.897944 -7.961294 0.000000 0.000000 0.000000 
0.004561 0.680649 -0.007332 -3.033935 -2.252348 -18.221941 15.572416 -0.060987 -52.215013 -12.696793 1.326743 68.571436 6.401088 5.989408 -10.130646 0.000000 0.000000 0.000000 -17.875815 -0.713876 -49.489535 17.799943 -9.182346 68.130049 -10.008195 -18.814001 -0.040350 0.000000 0.000000 0.000000 2.788992 -2.796283 32.632409 -9.131416 -0.701807 -19.095249 9.494618 -0.500191 23.988130 0.510664 3.338644 -22.380717 0.000000 0.000000 0.000000 -14.796793 -14.236671 7.836699 -43.134834 -23.134181 -5.683902 -31.055723 -56.531743 23.707142 15.673247 -5.935272 27.767023 -18.097879 7.913577 0.906828 1.424574 4.762278 13.439578 0.000000 0.000000 0.000000 -11.030846 0.559510 -2.373597 -23.235194 4.701682 -0.731160 0.000000 0.000000 0.000000 18.863860 -16.490004 -7.544243 -53.369764 -19.658365 -28.605875 0.000000 0.000000 0.000000 -5.907479 -1.973406 -2.109673 -43.018725 0.540450 -10.737458 0.000000 0.000000 0.000000 10.803861 33.005903 30.719297 -3.329123 -17.802427 -4.503967 0.000000 0.000000 0.000000 13.679995 12.324603 6.536315 48.039876 20.972494 0.017275 21.195773 61.744029 10.921955 -14.084248 8.091005 38.788919 20.048896 -7.403723 0.057637 -0.777644 -7.414200 16.181918 0.000000 0.000000 0.000000 11.991079 0.753154 -3.042814 27.452717 -8.347579 0.148605 0.000000 0.000000 0.000000 -21.303160 18.186652 -8.832417 65.342724 11.402375 -25.563548 0.000000 0.000000 0.000000 6.477978 2.756746 -2.553718 49.560591 -4.940724 -10.432937 0.000000 0.000000 0.000000 -8.819249 -35.946449 31.796892 -0.886888 19.575096 -7.551462 0.000000 0.000000 0.000000 
0.005032 0.680649 -0.009972 -3.112610 -1.808873 -18.433353 15.184051 -0.399481 -52.233944 -12.418121 0.990860 68.474423 6.243233 5.717208 -9.989182 0.000000 0.000000 0.000000 -17.834398 -0.835638 -49.235886 17.448588 -9.039122 68.085034 -9.961948 -18.762499 0.189293 0.000000 0.000000 0.000000 2.847080 -2.854708 32.926434 -9.000119 -0.753726 -19.193468 9.252162 -1.238828 24.364724 0.511330 3.389588 -22.656019 0.000000 0.000000 0.000000 -14.687924 -13.531850 7.443424 -43.359665 -23.527516 -5.620876 -30.966425 -56.520874 23.721541 15.418179 -5.912498 27.794446 -17.827067 7.811374 0.931879 0.510458 5.112283 13.448513 0.000000 0.000000 0.000000 -10.661839 0.539758 -2.287278 -23.136175 4.708180 -0.727717 0.000000 0.000000 0.000000 19.452428 -16.338892 -7.337590 -53.275469 -19.681543 -28.873481 0.000000 0.000000 0.000000 -5.482103 -1.963860 -2.049411 -43.104130 0.592900 -10.665758 0.000000 0.000000 0.000000 11.159005 33.016760 30.801846 -3.565085 -17.954195 -4.447075 0.000000 0.000000 0.000000 13.213023 13.330791 7.138177 48.158236 21.346093 0.080264 19.521380 62.176391 10.024121 -14.056994 7.860799 38.138337 19.022172 -5.701720 -0.024179 1.164518 -9.110599 17.395120 0.000000 0.000000 0.000000 11.646011 1.006551 -3.040125 28.142793 -8.397293 -0.162968 0.000000 0.000000 0.000000 -21.209347 18.513558 -8.995819 65.783984 11.223327 -25.129981 0.000000 0.000000 0.000000 6.310406 3.088948 -2.614350 49.031160 -4.707190 -10.470154 0.000000 0.000000 0.000000 -9.058756 -35.613917 31.677105 -0.011890 19.548731 -7.064896 0.000000 0.000000 0.000000 
